<?xml version="1.0" encoding="UTF-8" standalone="no"?>
<svg
   xmlns:dc="http://purl.org/dc/elements/1.1/"
   xmlns:cc="http://creativecommons.org/ns#"
   xmlns:rdf="http://www.w3.org/1999/02/22-rdf-syntax-ns#"
   xmlns:svg="http://www.w3.org/2000/svg"
   xmlns="http://www.w3.org/2000/svg"
   version="1.1"
   width="352"
   viewBox="0 0 343.74932 343.74934"
   height="352"
   enable-background="new 0 0 499.999 499.999"
   id="Capa_1">
  <metadata
     id="metadata258">
    <rdf:RDF>
      <cc:Work
         rdf:about="">
        <dc:format>image/svg+xml</dc:format>
        <dc:type
           rdf:resource="http://purl.org/dc/dcmitype/StillImage" />
        <dc:title></dc:title>
      </cc:Work>
    </rdf:RDF>
  </metadata>
  <defs
     id="defs256" />
  <g
     transform="translate(0.2115638,22.47606)"
     id="g3713">
    <path
       id="path262"
       d="M 254.70143,293.22523 88.624756,293.22522 5.5864258,149.3986 88.624771,5.5719814 254.70145,5.5719895 337.73978,149.39861 Z"
       style="fill:#9fad62;fill-opacity:1;stroke-width:0.97656053" />
    <path
       style="fill:#ffffff;fill-opacity:1;stroke-width:0.37253401"
       d="m 75.103149,137.65134 c -8.40342,4.70162 -11.41633,15.36192 -6.71454,23.76566 l 39.790121,71.11884 c 4.70161,8.40342 15.36297,11.41356 23.76639,6.71194 l 101.59645,-56.84197 c 2.80765,-1.57084 3.80704,-5.11386 2.2362,-7.9215 l -7.61326,-13.60756 43.23738,-0.46854 c 0.98941,-0.0131 1.93914,-0.2697 2.77759,-0.7388 0.89796,-0.5024 1.66355,-1.24283 2.19828,-2.16096 1.02427,-1.77815 1.04146,-3.97079 0.0396,-5.76148 l -51.1574,-91.436169 c -1.00206,-1.79103 -2.87912,-2.92341 -4.93071,-2.98065 -2.04775,-0.0397 -3.97264,0.99091 -5.07551,2.72166 l -23.02009,36.603915 -7.61327,-13.60757 c -1.57084,-2.80765 -5.11312,-3.80965 -7.92077,-2.23881 z m 5.68457,10.16032 96.516291,-53.999707 9.55872,17.084787 c 1.00188,1.7907 2.87819,2.92174 4.92978,2.97898 2.06406,0.0567 3.98786,-0.9866 5.07551,-2.72166 l 23.01936,-36.601328 41.58193,74.321438 -43.23573,0.46761 c -2.05762,0.0243 -3.95065,1.12329 -4.97493,2.90144 -1.02428,1.77814 -1.04239,3.96912 -0.0405,5.75981 l 9.55872,17.08476 -96.51629,53.99968 c -2.80276,1.56811 -6.3534,0.56656 -7.92151,-2.2362 L 78.548939,155.73243 c -1.56811,-2.80276 -0.56395,-6.35266 2.23881,-7.92077 z"
       id="path4780" />
  </g>
</svg>
